<?xml version="1.0" standalone="no"?>
<!DOCTYPE svg PUBLIC "-//W3C//DTD SVG 20010904//EN"
 "http://www.w3.org/TR/2001/REC-SVG-20010904/DTD/svg10.dtd">
<svg version="1.0" xmlns="http://www.w3.org/2000/svg"
 width="6659.000000pt" height="4501.000000pt" viewBox="0 0 6659.000000 4501.000000"
 preserveAspectRatio="xMidYMid meet">

<g transform="translate(0.000000,4501.000000) scale(0.100000,-0.100000)"
fill="#000000" stroke="none">
<path d="M12083 31824 c-7 -3 -9 -12 -6 -20 4 -10 -3 -14 -24 -14 -33 0 -54
-16 -46 -36 3 -8 0 -14 -6 -14 -7 0 -11 -22 -11 -56 0 -34 4 -53 10 -49 6 3
10 26 10 50 0 24 5 47 11 51 8 5 10 -20 7 -92 -5 -111 4 -166 27 -157 11 4 15
-2 15 -21 0 -14 5 -26 10 -26 6 0 10 -9 10 -20 0 -13 9 -22 26 -26 16 -4 23
-12 20 -20 -10 -25 4 -41 30 -36 24 4 35 -13 12 -21 -16 -5 8 -38 25 -34 6 1
13 -8 15 -20 3 -23 11 -27 45 -23 15 1 17 -3 13 -18 -7 -21 7 -36 34 -37 8 0
16 -10 18 -22 3 -19 10 -23 38 -23 31 0 34 -2 28 -24 -5 -21 -2 -25 23 -28 20
-2 29 -9 31 -25 2 -15 10 -23 22 -23 33 0 48 -11 43 -31 -4 -15 0 -19 18 -20
52 -3 54 -4 51 -26 -3 -20 1 -23 32 -23 31 0 36 -3 36 -24 0 -19 7 -25 35 -30
25 -5 33 -11 28 -22 -4 -10 2 -17 16 -21 11 -3 21 -9 21 -13 0 -5 9 -6 20 -3
15 4 20 0 20 -15 0 -15 9 -22 38 -28 20 -4 40 -7 44 -6 4 1 17 -26 29 -59 19
-52 24 -58 30 -40 5 11 10 21 11 21 2 0 4 -173 5 -385 2 -246 -1 -385 -7 -385
-6 0 -10 79 -11 208 -1 133 -4 194 -9 172 -15 -62 -21 -329 -24 -1086 -2 -408
-6 -746 -10 -752 -9 -15 4 -42 20 -42 8 0 14 -5 14 -11 0 -17 27 -39 48 -39
13 0 22 -9 26 -25 5 -18 13 -25 31 -25 16 0 25 -6 25 -15 0 -8 7 -15 15 -15 8
0 15 -4 15 -9 0 -5 9 -11 20 -14 11 -3 20 -9 19 -14 -3 -20 2 -33 14 -33 10 0
13 14 9 55 -5 63 4 109 19 99 20 -12 29 20 30 111 1 80 15 175 18 121 1 -20 1
-20 16 0 10 13 15 46 15 99 1 44 5 89 10 100 5 11 9 16 9 11 1 -5 8 -3 16 4
11 9 15 35 16 99 0 47 4 95 9 106 5 12 9 15 9 6 1 -11 4 -12 12 -4 6 6 15 55
19 109 5 74 11 100 24 109 13 10 19 41 28 134 6 68 15 116 19 109 4 -7 11 -9
15 -5 10 10 22 99 23 166 1 41 4 52 15 48 22 -9 28 18 34 136 4 97 14 135 24
90 8 -33 28 87 28 162 0 52 4 76 14 82 7 4 15 14 18 22 3 10 24 15 71 16 61 2
67 1 62 -15 -5 -15 2 -19 35 -25 33 -6 40 -10 35 -25 -6 -18 23 -34 58 -30 11
1 17 -6 17 -20 0 -15 8 -22 30 -26 16 -4 33 -6 37 -5 5 1 10 -8 13 -21 4 -15
18 -27 40 -35 19 -6 34 -16 32 -22 -3 -13 45 -34 59 -25 5 3 13 -6 18 -19 11
-29 34 -39 67 -31 23 6 24 4 19 -19 -6 -23 -3 -26 34 -32 22 -4 45 -4 51 0 14
9 13 -8 -2 -23 -16 -16 5 -32 45 -32 20 0 27 -5 27 -19 0 -19 25 -31 67 -31
16 0 20 -5 16 -19 -5 -19 19 -31 65 -31 24 0 28 -10 10 -28 -9 -9 -7 -12 9
-12 12 0 24 -4 28 -9 3 -5 19 -8 35 -6 32 4 38 -3 18 -23 -9 -9 -6 -12 14 -12
15 0 30 -5 33 -10 4 -6 16 -8 27 -4 17 5 19 3 13 -15 -5 -18 -1 -21 35 -27 31
-5 39 -10 35 -23 -5 -17 34 -41 67 -41 11 0 23 -11 28 -26 8 -19 16 -25 30
-21 20 5 20 -1 20 -320 0 -269 -2 -324 -13 -314 -10 8 -17 7 -25 -1 -18 -18
-15 -58 6 -64 31 -10 47 -22 44 -34 -1 -6 11 -17 27 -23 16 -6 34 -22 40 -35
8 -16 18 -22 34 -20 20 3 22 10 27 83 4 72 7 80 25 80 17 0 20 8 23 50 3 74
10 93 29 91 15 -1 19 10 23 64 4 55 8 66 28 75 18 8 22 18 23 55 2 62 11 94
29 99 50 12 101 12 115 1 14 -12 15 -10 4 13 -7 15 -18 27 -26 27 -22 0 -16
57 7 63 11 3 24 15 28 28 6 16 22 26 53 33 36 9 44 15 42 32 -2 17 2 20 22 16
26 -5 55 17 55 42 0 9 6 13 14 10 8 -3 17 -1 21 5 3 6 15 11 26 11 16 0 19 4
14 21 -6 18 -4 21 12 17 11 -3 26 0 35 6 15 11 18 17 18 37 0 5 8 10 18 9 35
-4 64 12 59 31 -4 16 2 20 34 25 50 8 69 29 34 38 -14 4 -25 11 -25 18 0 15
-31 37 -54 38 -11 0 -16 5 -13 14 18 46 -88 46 -115 1 -4 -7 -34 -16 -65 -20
-86 -10 -102 -15 -97 -30 4 -10 -8 -15 -43 -20 -90 -11 -128 -20 -125 -30 5
-13 -26 -23 -70 -24 -44 -1 -91 -18 -84 -30 7 -10 -27 -21 -67 -21 -20 0 -30
6 -34 19 -3 10 -19 23 -36 28 -21 6 -33 16 -35 30 -2 14 -12 23 -25 25 -14 2
-23 11 -25 26 -2 16 -10 22 -27 22 -17 0 -25 6 -27 23 -2 12 -12 26 -24 31
-11 5 -25 19 -30 30 -5 12 -17 20 -27 20 -10 -1 -17 5 -17 15 0 22 -19 41 -42
41 -10 0 -18 6 -18 13 0 8 -11 20 -25 27 -14 7 -25 19 -25 26 0 7 -13 18 -30
26 -16 7 -30 17 -30 21 0 13 -25 34 -44 38 -9 2 -16 7 -14 10 4 8 -29 39 -42
39 -6 0 -16 11 -22 25 -6 14 -19 25 -29 25 -11 0 -19 9 -21 23 -2 14 -11 23
-26 25 -13 2 -27 14 -32 26 -5 13 -20 26 -34 30 -16 4 -26 13 -26 25 0 12 -9
21 -25 25 -16 4 -25 13 -25 25 0 12 -9 21 -24 25 -15 4 -26 14 -28 29 -2 13
-11 23 -23 25 -11 2 -25 13 -30 25 -6 12 -19 23 -30 25 -11 2 -25 13 -30 25
-7 14 -21 23 -40 25 -48 6 -55 18 -55 92 0 63 2 68 31 91 18 13 39 24 48 25
53 3 91 17 91 34 0 14 11 20 50 25 40 6 50 11 50 26 0 13 8 19 25 20 14 1 30
3 35 4 6 1 17 3 25 4 8 0 15 10 15 20 0 16 9 21 45 26 38 6 44 10 42 29 -2 16
4 21 23 22 73 2 79 4 82 26 2 15 10 23 23 24 71 3 75 4 75 24 0 11 6 21 13 22
6 0 17 2 22 3 6 2 21 3 34 4 18 1 22 5 18 21 -3 11 -2 20 1 21 93 8 105 13 97
40 -6 17 -1 19 44 19 46 0 81 18 53 28 -28 9 -8 21 41 24 47 3 52 5 50 26 -3
20 2 22 40 22 24 0 52 7 63 15 11 8 14 15 7 15 -7 0 -13 5 -13 10 0 6 19 10
43 10 51 0 70 11 61 33 -5 14 0 17 27 17 53 0 79 10 79 31 0 14 11 19 45 25
38 5 45 9 40 24 -5 16 2 19 50 25 48 6 56 10 52 26 -4 15 3 19 47 24 45 6 52
10 52 28 -1 22 2 24 60 26 19 1 34 7 38 17 4 12 2 15 -9 10 -8 -3 -15 -1 -15
5 0 7 16 10 40 7 22 -2 40 0 40 4 0 4 -22 17 -50 30 -27 13 -50 28 -50 35 0
16 -32 33 -60 33 -15 0 -20 5 -17 14 7 18 -12 36 -39 36 -16 0 -24 7 -26 23
-2 14 -11 23 -27 25 -31 5 -71 -17 -64 -34 4 -11 -9 -14 -60 -14 -35 0 -80 -7
-98 -15 -19 -8 -28 -14 -21 -15 6 0 12 -4 12 -10 0 -6 -27 -10 -61 -10 -73 0
-142 -18 -135 -36 3 -8 -19 -14 -78 -19 -85 -7 -113 -16 -103 -33 7 -10 -59
-22 -127 -22 -45 0 -72 -12 -62 -28 8 -13 -42 -22 -119 -22 -43 0 -66 -5 -75
-15 -7 -8 -9 -15 -4 -15 5 0 2 -5 -6 -10 -8 -5 -47 -10 -86 -10 -68 0 -91 -9
-93 -35 0 -5 -34 -12 -75 -15 -74 -5 -91 -11 -91 -33 0 -8 -28 -13 -82 -15
-46 -2 -83 -7 -83 -12 0 -6 -9 -10 -20 -10 -13 0 -18 -5 -14 -15 5 -12 -6 -15
-67 -15 -70 -1 -104 -12 -107 -35 -1 -5 -30 -11 -64 -13 -35 -2 -67 -7 -73
-13 -5 -5 -17 -9 -27 -9 -11 0 -15 -5 -12 -15 5 -13 -7 -15 -72 -15 -76 -1
-112 -12 -110 -35 1 -6 -33 -11 -78 -13 -64 -2 -78 0 -73 11 3 9 -4 20 -19 27
-13 8 -24 17 -24 22 0 17 -28 38 -50 38 -15 0 -20 5 -17 14 7 18 -12 36 -39
36 -15 0 -24 8 -28 24 -4 18 -14 26 -34 28 -19 2 -28 9 -30 26 -2 16 -10 22
-27 22 -17 0 -25 6 -27 23 -2 16 -11 23 -31 25 -19 2 -31 11 -37 27 -7 17 -18
25 -42 27 -25 2 -34 8 -36 26 -2 15 -10 22 -25 22 -27 0 -42 10 -50 32 -4 11
-22 20 -47 24 -27 4 -39 11 -36 19 8 21 -16 35 -57 35 -29 0 -38 4 -34 14 8
21 -13 36 -53 36 -27 0 -38 5 -45 23 -9 19 -19 22 -77 25 -38 2 -68 7 -68 12
0 6 6 11 13 11 6 1 -1 5 -18 9 -33 8 -193 11 -212 4z"/>
<path d="M11070 27040 c0 -14 7 -20 23 -20 l22 0 -3 -2365 c-2 -2347 -2 -2365
-22 -2385 -29 -29 -25 -42 13 -38 26 2 32 7 30 26 -2 17 2 22 21 22 37 0 56
10 56 30 0 13 11 19 41 24 34 5 39 10 34 25 -5 16 1 20 35 26 29 5 40 12 40
25 0 21 19 30 62 30 25 0 29 3 25 19 -5 21 10 31 48 31 17 0 25 6 27 23 2 17
10 23 40 25 29 2 37 8 40 25 2 17 11 23 41 25 20 2 38 7 38 13 1 5 2 15 3 22
0 6 18 13 39 15 20 2 38 7 38 13 1 5 2 15 3 22 0 6 16 13 34 15 27 3 33 7 30
25 -3 19 2 22 40 25 40 3 47 9 43 40 -1 7 11 12 34 12 33 0 40 7 36 37 -1 7
14 13 36 15 31 2 39 7 41 26 3 16 10 22 28 22 36 0 64 17 58 35 -5 11 2 15 28
15 37 0 59 15 52 34 -3 7 11 16 33 22 26 6 38 15 37 26 -1 13 10 20 40 26 30
6 41 13 40 25 -1 11 8 19 25 23 47 10 52 13 49 31 -2 14 5 19 28 21 22 2 35
11 42 28 9 18 19 24 42 24 27 0 31 3 28 23 -3 19 2 23 37 27 32 4 40 9 40 25
0 15 8 21 32 23 25 3 34 9 39 28 5 18 13 24 34 24 28 0 45 13 45 35 0 6 15 11
33 13 30 3 37 10 33 40 -1 7 10 12 27 12 32 0 53 16 45 36 -3 9 7 14 34 16 30
2 39 7 41 25 2 16 11 23 35 25 26 2 31 7 29 24 -2 16 5 22 40 30 27 6 43 14
43 24 0 19 14 30 42 30 15 0 23 7 25 22 2 16 12 24 33 28 22 4 30 11 30 25 0
15 8 21 35 25 27 4 35 10 35 25 0 15 8 21 32 23 24 2 33 9 35 25 2 15 12 23
33 27 22 4 30 11 30 25 0 15 8 21 32 23 25 2 34 9 39 27 4 18 14 25 37 27 24
2 33 8 35 26 3 16 10 22 28 22 18 0 24 5 24 21 0 12 8 23 20 26 22 6 23 9 10
38 -6 13 -9 15 -9 5 -1 -13 -2 -13 -11 0 -6 9 -10 170 -10 405 0 235 4 396 10
405 9 13 10 13 10 0 0 -8 12 4 26 28 l25 42 511 0 c508 0 510 0 515 21 3 11
17 25 30 30 17 6 23 14 19 24 -4 10 3 19 18 25 13 4 26 18 29 29 3 12 12 21
21 21 14 0 21 12 17 33 -1 4 10 12 24 17 15 6 25 17 25 29 0 13 8 21 23 23 14
2 23 11 25 26 2 14 10 22 23 22 12 0 19 7 19 20 0 13 10 24 25 30 15 6 25 17
25 30 0 12 10 25 25 32 14 6 25 19 25 29 0 9 7 19 15 23 8 3 12 12 9 19 -3 9
3 16 15 20 12 3 25 17 31 31 5 14 16 26 24 26 9 0 12 7 9 20 -4 14 1 22 19 29
16 6 29 23 38 52 8 24 22 44 32 47 12 3 18 14 18 32 0 23 4 27 19 23 14 -3 21
2 26 19 14 48 30 78 42 78 6 0 13 15 15 33 2 17 9 33 16 33 6 1 16 2 21 3 5 0
11 18 15 40 4 27 12 40 26 44 14 4 20 14 20 35 0 43 9 62 31 62 16 0 19 8 19
49 0 43 3 50 25 55 21 5 24 12 27 64 2 36 7 57 16 58 6 1 17 2 22 3 6 0 10 32
10 71 0 66 1 70 23 67 21 -2 22 2 27 83 6 91 13 112 34 104 11 -4 15 32 21
185 7 173 9 191 25 191 10 0 20 9 23 20 5 20 0 20 -2404 20 -2402 0 -2409 0
-2409 -20z"/>
<path d="M17220 27036 c0 -16 7 -27 20 -31 26 -8 28 -20 35 -220 3 -93 9 -213
14 -265 l7 -95 2 78 c1 43 6 77 12 77 6 0 10 -67 10 -180 0 -113 -4 -180 -10
-180 -5 0 -11 24 -12 53 -3 94 -18 -101 -24 -298 -4 -177 -9 -233 -21 -222 -3
3 -11 0 -19 -7 -9 -10 -14 -50 -16 -137 -2 -93 -6 -123 -15 -121 -7 1 -13 -5
-13 -13 0 -8 -4 -15 -10 -15 -5 0 -11 -44 -12 -97 -2 -69 -7 -98 -15 -99 -7
-1 -17 -2 -23 -3 -6 0 -10 -33 -11 -73 0 -72 -8 -110 -22 -109 -23 3 -27 -3
-27 -37 0 -21 -5 -43 -12 -50 -9 -9 312 -12 1447 -12 l1460 0 0 1040 0 1040
-1372 0 -1373 0 0 -24z"/>
<path d="M14334 21685 c-5 -19 -13 -25 -35 -25 -24 0 -29 -4 -29 -25 0 -20 -5
-25 -24 -25 -23 0 -56 -27 -46 -39 3 -3 -4 -7 -15 -9 -29 -6 -45 -21 -38 -38
4 -10 -3 -14 -24 -14 -33 0 -54 -16 -46 -36 3 -8 -6 -14 -29 -16 -28 -2 -33
-7 -30 -25 2 -17 -2 -23 -17 -23 -33 0 -51 -11 -51 -31 0 -14 -9 -21 -31 -26
-20 -4 -34 -14 -40 -29 -6 -16 -16 -24 -33 -24 -18 0 -25 -6 -28 -22 -2 -18
-11 -24 -35 -26 -24 -2 -33 -9 -35 -25 -2 -15 -12 -23 -33 -27 -22 -4 -30 -11
-30 -25 0 -15 -8 -21 -32 -23 -31 -3 -37 -10 -34 -39 1 -6 -13 -13 -31 -15
-25 -2 -33 -8 -33 -23 0 -15 -8 -21 -32 -23 -18 -2 -34 -7 -34 -13 -1 -5 -2
-15 -3 -21 0 -7 -12 -15 -26 -16 -33 -5 -50 -20 -43 -38 4 -10 -3 -14 -26 -14
-29 0 -36 -7 -32 -37 1 -8 -10 -13 -28 -13 -28 0 -45 -13 -46 -34 0 -6 -15
-14 -34 -18 -19 -5 -35 -17 -38 -27 -3 -10 -19 -23 -36 -28 -18 -5 -32 -15
-32 -23 0 -8 -16 -20 -35 -26 -23 -7 -34 -17 -34 -28 1 -10 -8 -18 -25 -22
-47 -10 -52 -13 -49 -31 2 -14 -5 -19 -29 -21 -18 -2 -34 -7 -34 -13 -1 -5 -2
-15 -3 -21 0 -7 -14 -15 -31 -18 -22 -4 -30 -11 -30 -25 0 -15 -8 -21 -35 -25
-27 -4 -36 -10 -38 -27 -3 -18 -10 -23 -33 -23 -26 0 -30 -3 -27 -22 3 -20 -2
-23 -34 -26 -21 -2 -39 -7 -39 -13 -1 -5 -2 -15 -3 -21 0 -7 -16 -14 -33 -16
-18 -2 -34 -7 -34 -13 -1 -5 -2 -15 -3 -21 0 -7 -12 -15 -26 -16 -33 -5 -50
-20 -43 -38 4 -10 -3 -14 -23 -14 -33 -1 -63 -20 -57 -37 3 -7 -9 -13 -29 -15
-25 -2 -34 -8 -36 -25 -2 -16 -10 -23 -26 -23 -27 0 -46 -18 -39 -36 3 -8 -7
-15 -32 -20 -25 -4 -39 -14 -45 -30 -6 -15 -19 -24 -37 -26 -20 -2 -28 -9 -28
-23 0 -15 -8 -21 -33 -23 -24 -2 -35 -10 -42 -28 -7 -17 -17 -24 -35 -24 -14
0 -26 -4 -26 -10 -1 -5 -2 -16 -3 -22 0 -7 -16 -14 -33 -16 -18 -2 -34 -7 -34
-13 -1 -5 -2 -15 -3 -21 0 -7 -16 -14 -33 -16 -25 -2 -34 -9 -39 -27 -4 -18
-14 -25 -37 -27 -24 -2 -33 -8 -35 -25 -2 -17 -10 -23 -27 -23 -23 0 -40 -14
-40 -35 0 -5 -13 -12 -30 -15 -18 -3 -34 -14 -40 -27 -5 -13 -20 -23 -35 -25
-14 -2 -29 -12 -35 -25 -5 -13 -20 -23 -35 -25 -14 -2 -29 -12 -35 -25 -5 -13
-20 -23 -35 -25 -17 -2 -26 -10 -28 -25 -2 -16 -12 -24 -37 -29 -21 -4 -35
-13 -38 -25 -3 -10 -13 -21 -24 -25 -33 -10 -48 -21 -48 -35 0 -8 -12 -15 -28
-17 -19 -2 -31 -11 -37 -28 -7 -18 -17 -24 -40 -24 -16 0 -31 -4 -31 -10 -1
-5 -2 -16 -3 -22 0 -7 -14 -15 -31 -18 -21 -4 -31 -12 -33 -27 -2 -15 -11 -23
-30 -25 -33 -4 -41 -42 -18 -85 11 -20 15 -23 16 -10 0 9 3 17 8 17 4 0 6
-532 4 -1182 -2 -1165 -3 -1182 -22 -1195 -24 -17 -27 -63 -5 -63 8 0 15 8 15
18 0 15 15 17 167 18 93 0 186 5 208 11 22 6 36 11 30 12 -5 1 -3 6 5 11 8 5
65 10 127 10 64 0 114 4 118 10 3 6 29 10 56 10 28 0 48 4 45 9 -9 15 21 21
99 21 41 0 77 5 80 10 3 6 26 10 51 10 30 0 43 4 41 13 -1 8 22 14 78 18 111
8 155 19 149 34 -4 10 12 15 58 18 85 7 142 20 137 32 -2 6 26 13 66 17 89 9
137 20 134 33 -2 6 4 11 12 12 78 8 159 28 159 39 0 16 17 21 102 29 54 5 67
10 71 26 4 13 14 19 35 19 64 0 123 13 118 26 -6 15 15 24 57 24 49 0 75 10
80 31 4 13 14 19 35 19 45 0 82 17 82 38 0 14 7 17 39 14 21 -2 42 1 45 7 4 6
15 11 26 11 12 0 17 5 13 18 -4 15 1 17 36 14 50 -5 71 14 70 60 0 18 -3 27
-6 20 -2 -6 -9 -10 -14 -6 -10 6 -13 2022 -3 2074 4 20 10 27 14 19 5 -8 10
-5 15 10 l6 21 2754 0 2754 0 1 1060 0 1060 -2455 0 -2455 0 -6 -25z m4876
-2055 c0 -7 -910 -10 -2710 -10 -1800 0 -2710 3 -2710 10 0 7 910 10 2710 10
1800 0 2710 -3 2710 -10z"/>
</g>
</svg>
